<svg width="20" height="20" viewBox="0 0 20 20" fill="none" xmlns="http://www.w3.org/2000/svg">
<path fill-rule="evenodd" clip-rule="evenodd" d="M2.5 9.99999C2.5 9.53975 2.8731 9.16666 3.33333 9.16666H16.6667C17.1269 9.16666 17.5 9.53975 17.5 9.99999C17.5 10.4602 17.1269 10.8333 16.6667 10.8333H3.33333C2.8731 10.8333 2.5 10.4602 2.5 9.99999Z" fill="#F4F4F4" stroke="#F4F4F4" stroke-linecap="round"/>
<path fill-rule="evenodd" clip-rule="evenodd" d="M10 2.5C10.4602 2.5 10.8333 2.8731 10.8333 3.33333L10.8333 16.6667C10.8333 17.1269 10.4602 17.5 10 17.5C9.53977 17.5 9.16668 17.1269 9.16668 16.6667L9.16668 3.33333C9.16668 2.8731 9.53977 2.5 10 2.5Z" fill="#F4F4F4" stroke="#F4F4F4" stroke-linecap="round"/>
</svg>
