<svg width="361" height="51" viewBox="0 0 361 51" fill="none" xmlns="http://www.w3.org/2000/svg">
<path d="M96.5207 11.96L92.4887 35H86.6967L82.6647 22.392L80.4887 35H74.6967L78.7607 11.96H84.7127L88.6807 23.736L90.7607 11.96H96.5207ZM117.041 33.336C115.356 34.744 112.967 35.448 109.873 35.448C106.78 35.448 104.636 34.7333 103.441 33.304C102.588 32.3227 102.161 30.968 102.161 29.24C102.161 28.472 102.247 27.6293 102.417 26.712L105.009 11.96H110.769L108.177 26.584C108.092 27.1173 108.049 27.672 108.049 28.248C108.049 29.7413 108.945 30.488 110.737 30.488C111.804 30.488 112.657 30.2107 113.297 29.656C113.937 29.1013 114.385 28.0773 114.641 26.584L117.233 11.96H122.993L120.401 26.712C119.868 29.6987 118.748 31.9067 117.041 33.336ZM149.278 11.96L145.246 35H139.454L135.422 22.392L133.246 35H127.454L131.518 11.96H137.47L141.438 23.736L143.518 11.96H149.278ZM169.991 35H153.927L157.991 11.96H174.055L173.159 16.952H162.855L162.119 21.272H170.631L169.735 26.264H161.223L160.583 30.008H170.887L169.991 35ZM183.949 28.44C183.949 29.912 185.005 30.648 187.117 30.648C189.25 30.648 190.317 29.9867 190.317 28.664C190.317 27.96 189.954 27.384 189.229 26.936C188.503 26.488 187.618 26.1147 186.573 25.816C185.549 25.5173 184.514 25.176 183.469 24.792C182.445 24.3867 181.57 23.768 180.845 22.936C180.119 22.0827 179.757 21.0267 179.757 19.768C179.757 14.4133 183.202 11.736 190.093 11.736C192.61 11.736 194.509 12.216 195.789 13.176C197.09 14.1147 197.741 15.4267 197.741 17.112C197.741 17.7307 197.655 18.328 197.485 18.904C197.335 19.4587 197.175 19.8533 197.005 20.088L196.749 20.472H191.085C191.554 19.9813 191.789 19.3627 191.789 18.616C191.789 17.2293 190.882 16.536 189.069 16.536C186.786 16.536 185.645 17.2613 185.645 18.712C185.645 19.4373 186.007 20.0133 186.733 20.44C187.458 20.8667 188.333 21.208 189.357 21.464C190.402 21.6987 191.447 21.9973 192.493 22.36C193.538 22.7227 194.423 23.3307 195.149 24.184C195.874 25.016 196.237 26.104 196.237 27.448C196.237 30.1573 195.426 32.1733 193.805 33.496C192.183 34.7973 189.687 35.448 186.317 35.448C182.946 35.448 180.642 34.8507 179.405 33.656C178.487 32.76 178.029 31.5227 178.029 29.944C178.029 29.3467 178.093 28.696 178.221 27.992L178.317 27.48H184.077L184.013 27.864C183.97 28.0773 183.949 28.2693 183.949 28.44ZM220.706 28.44C220.706 29.912 221.762 30.648 223.874 30.648C226.008 30.648 227.074 29.9867 227.074 28.664C227.074 27.96 226.712 27.384 225.986 26.936C225.261 26.488 224.376 26.1147 223.33 25.816C222.306 25.5173 221.272 25.176 220.226 24.792C219.202 24.3867 218.328 23.768 217.602 22.936C216.877 22.0827 216.514 21.0267 216.514 19.768C216.514 14.4133 219.96 11.736 226.85 11.736C229.368 11.736 231.266 12.216 232.546 13.176C233.848 14.1147 234.498 15.4267 234.498 17.112C234.498 17.7307 234.413 18.328 234.242 18.904C234.093 19.4587 233.933 19.8533 233.762 20.088L233.506 20.472H227.842C228.312 19.9813 228.546 19.3627 228.546 18.616C228.546 17.2293 227.64 16.536 225.826 16.536C223.544 16.536 222.402 17.2613 222.402 18.712C222.402 19.4373 222.765 20.0133 223.49 20.44C224.216 20.8667 225.09 21.208 226.114 21.464C227.16 21.6987 228.205 21.9973 229.25 22.36C230.296 22.7227 231.181 23.3307 231.906 24.184C232.632 25.016 232.994 26.104 232.994 27.448C232.994 30.1573 232.184 32.1733 230.562 33.496C228.941 34.7973 226.445 35.448 223.074 35.448C219.704 35.448 217.4 34.8507 216.162 33.656C215.245 32.76 214.786 31.5227 214.786 29.944C214.786 29.3467 214.85 28.696 214.978 27.992L215.074 27.48H220.834L220.77 27.864C220.728 28.0773 220.706 28.2693 220.706 28.44ZM250.32 27.992H246.512L245.264 35H239.504L243.568 11.96H253.328C255.739 11.96 257.456 12.5147 258.48 13.624C259.227 14.4773 259.6 15.5653 259.6 16.888C259.6 17.336 259.558 17.8053 259.472 18.296L258.832 21.912C258.512 23.6827 257.574 25.144 256.016 26.296C254.459 27.4267 252.56 27.992 250.32 27.992ZM251.312 16.952H248.432L247.376 23H250.224C251.974 23 252.987 22.2213 253.264 20.664L253.488 19.352C253.531 19.16 253.552 18.904 253.552 18.584C253.552 18.264 253.392 17.912 253.072 17.528C252.752 17.144 252.166 16.952 251.312 16.952ZM276.518 11.736C281.66 11.736 284.23 13.8373 284.23 18.04C284.23 18.744 284.156 19.5013 284.006 20.312L282.886 26.712C282.374 29.6773 281.265 31.8747 279.558 33.304C277.852 34.7333 275.452 35.448 272.358 35.448C269.265 35.448 267.11 34.7333 265.894 33.304C265.062 32.3227 264.646 30.968 264.646 29.24C264.646 28.472 264.732 27.6293 264.902 26.712L266.022 20.312C267.025 14.5947 270.524 11.736 276.518 11.736ZM273.222 30.488C274.289 30.488 275.142 30.2107 275.782 29.656C276.422 29.1013 276.87 28.0773 277.126 26.584L278.214 20.44C278.278 20.0133 278.31 19.6293 278.31 19.288C278.31 17.56 277.436 16.696 275.686 16.696C273.489 16.7387 272.177 17.9867 271.75 20.44L270.662 26.584C270.577 27.1173 270.534 27.672 270.534 28.248C270.534 29.7413 271.43 30.488 273.222 30.488ZM302.824 11.96C305.256 11.96 306.984 12.4933 308.008 13.56C308.776 14.3707 309.16 15.3947 309.16 16.632C309.16 17.0587 309.118 17.5067 309.032 17.976L308.584 20.472C308.328 21.8587 307.88 22.9787 307.24 23.832C306.622 24.6853 305.928 25.2933 305.16 25.656L308.072 35H301.608L298.92 26.392H296.936L295.624 35H289.48L293.544 11.96H302.824ZM300.808 16.952H298.408L297.576 22.52H299.816C300.947 22.52 301.758 22.2533 302.248 21.72C302.739 21.1653 302.984 20.44 302.984 19.544C302.984 17.816 302.259 16.952 300.808 16.952ZM337.144 16.952H329.272L326.104 35H320.312L323.48 16.952H315.576L316.472 11.96H338.04L337.144 16.952ZM346.881 28.44C346.881 29.912 347.937 30.648 350.049 30.648C352.183 30.648 353.249 29.9867 353.249 28.664C353.249 27.96 352.887 27.384 352.161 26.936C351.436 26.488 350.551 26.1147 349.505 25.816C348.481 25.5173 347.447 25.176 346.401 24.792C345.377 24.3867 344.503 23.768 343.777 22.936C343.052 22.0827 342.689 21.0267 342.689 19.768C342.689 14.4133 346.135 11.736 353.025 11.736C355.543 11.736 357.441 12.216 358.721 13.176C360.023 14.1147 360.673 15.4267 360.673 17.112C360.673 17.7307 360.588 18.328 360.417 18.904C360.268 19.4587 360.108 19.8533 359.937 20.088L359.681 20.472H354.017C354.487 19.9813 354.721 19.3627 354.721 18.616C354.721 17.2293 353.815 16.536 352.001 16.536C349.719 16.536 348.577 17.2613 348.577 18.712C348.577 19.4373 348.94 20.0133 349.665 20.44C350.391 20.8667 351.265 21.208 352.289 21.464C353.335 21.6987 354.38 21.9973 355.425 22.36C356.471 22.7227 357.356 23.3307 358.081 24.184C358.807 25.016 359.169 26.104 359.169 27.448C359.169 30.1573 358.359 32.1733 356.737 33.496C355.116 34.7973 352.62 35.448 349.249 35.448C345.879 35.448 343.575 34.8507 342.337 33.656C341.42 32.76 340.961 31.5227 340.961 29.944C340.961 29.3467 341.025 28.696 341.153 27.992L341.249 27.48H347.009L346.945 27.864C346.903 28.0773 346.881 28.2693 346.881 28.44Z" fill="#F4F4F4"/>
<path fill-rule="evenodd" clip-rule="evenodd" d="M27.6132 0.0540086C26.9847 0.113852 26.0325 0.474564 25.4972 0.855445L24.5239 1.54844L25.4827 2.3307C26.5665 3.21512 27.3884 3.17181 29.803 2.10389C32.3895 0.959922 31.0706 -0.274964 27.6132 0.0540086ZM45.5021 3.08816C44.7476 3.63501 44.13 4.23741 44.13 4.42719C44.13 5.40353 45.2911 6.83183 46.5488 7.40315C49.9516 8.94784 52.8079 7.36282 51.3912 4.71616C51.1224 4.21394 47.5718 2.0943 46.9995 2.0943C46.9304 2.0943 46.2569 2.54164 45.5021 3.08816ZM31.5669 3.43333C30.0255 3.75206 28.7357 4.52638 28.1201 5.50272C27.8546 5.9236 27.8916 6.29853 28.2642 6.974C28.6633 7.69642 29.3884 8.09052 31.8393 8.91643L34.9135 9.95294L37.1306 9.38261C39.7694 8.70383 40.6921 8.2479 41.1467 7.39853C41.5885 6.57295 41.1166 5.33674 40.1099 4.68178C38.269 3.48425 34.197 2.88912 31.5669 3.43333ZM19.5668 4.91553C17.1294 5.8102 14.3737 8.09681 14.3737 9.22457C14.3737 10.1391 15.8879 10.8179 17.5073 10.6287C18.1478 10.554 18.6718 10.5282 18.6718 10.5719C18.6718 10.6155 17.3701 11.7241 15.7792 13.035L12.8865 15.4192L12.7017 14.2835C12.4673 12.84 12.1667 12.3635 11.2817 12.0296C9.41131 11.3247 6.1153 14.909 5.58498 18.2239C5.41272 19.3027 5.50166 19.6723 6.07166 20.2423C7.01031 21.181 7.72214 21.1218 9.44735 19.961L10.9021 18.982L11.0952 21.8621C11.3174 25.1706 12.0305 26.8783 13.8629 28.4868C15.6823 30.0844 17.4075 30.7731 21.0196 31.3434C24.676 31.921 30.5634 29.8427 33.7149 26.8625C39.3329 21.549 38.9484 13.9895 32.9006 10.8622C31.4052 10.0888 27.9951 9.38096 25.6149 9.34955C22.2591 9.3059 22.0372 9.10621 23.6226 7.55789C25.7072 5.52256 25.2979 4.39281 22.4905 4.43182C21.5724 4.44472 20.2565 4.66227 19.5668 4.91553ZM10.7368 7.32083C9.10912 8.11764 8.92562 8.31171 8.98778 9.17299C9.02613 9.70232 9.17921 10.2571 9.32832 10.4062C9.73731 10.8152 13.7118 7.43655 13.4929 6.86589C13.2452 6.22117 12.8508 6.2863 10.7368 7.32083ZM41.1206 10.4492C39.0225 11.8507 38.3675 14.2276 39.329 16.9523C41.0965 21.9626 47.3169 23.9186 50.3818 20.4278C51.2411 19.4492 51.4037 18.9926 51.4037 17.5613C51.4037 15.4132 50.4694 13.4324 48.7029 11.8365C46.1967 9.57239 43.2422 9.03182 41.1206 10.4492ZM1.40521 19.2042C0.281747 20.4853 -0.255189 21.9864 0.117426 22.8044C0.849762 24.4112 2.7912 23.3132 3.52022 20.8795C3.80853 19.9167 3.79762 19.5249 3.47162 19.1321C2.91386 18.4599 2.03076 18.4907 1.40521 19.2042ZM4.95778 24.5696C3.66868 25.9152 3.4217 28.5027 4.39936 30.419C5.3909 32.3624 7.19843 33.8344 8.594 33.8344C10.2336 33.8344 11.7128 32.4206 12.0629 30.5188C12.3036 29.2125 12.2167 28.8168 11.3157 27.1223C9.99784 24.6433 8.74708 23.585 7.13628 23.585C6.19763 23.585 5.67491 23.821 4.95778 24.5696ZM38.6746 25.1045C35.7592 26.1652 32.5763 29.12 31.6756 31.6023C30.781 34.0688 31.3596 36.7703 33.0021 37.7959C33.3856 38.0356 34.6701 38.2985 35.8564 38.3801C38.7986 38.5828 41.3607 37.6084 43.6975 35.3982C47.7916 31.5263 48.2473 26.836 44.6867 25.2192C43.0462 24.4747 40.5384 24.4267 38.6746 25.1045ZM54.8753 26.8132C52.7434 27.1842 50.5127 28.7702 49.5572 30.5942C48.9379 31.7765 48.9634 33.6654 49.6121 34.6553C49.8997 35.0944 50.7838 35.7011 51.5766 36.0039C52.7996 36.4711 53.2678 36.4949 54.6617 36.1603C57.5173 35.4753 60 32.7198 60 30.2355C60 28.1873 57.3084 26.39 54.8753 26.8132ZM17.7517 32.2093C13.8619 32.8779 11.9846 34.7935 12.6957 37.3687C13.2033 39.2064 14.2401 40.0442 17.1642 40.9792C19.3334 41.6725 20.2241 41.7958 21.9536 41.6417C26.299 41.2549 28.8081 38.9511 27.9614 36.1253C27.1094 33.2816 22.2826 31.4304 17.7517 32.2093ZM2.79417 35.0742C1.50176 36.7141 2.45958 39.6798 4.62385 40.7401C5.73442 41.2837 6.33319 41.0046 7.18852 39.5443C7.75157 38.5838 7.74926 38.4902 7.12669 37.0375C5.87825 34.1253 4.15701 33.3454 2.79417 35.0742ZM25.1643 43.2456C23.2678 43.9217 21.9781 45.2962 21.9781 46.6411C21.9781 48.164 23.1557 49.1727 25.6754 49.8072C27.6665 50.3088 27.7501 50.3022 29.8026 49.4805C31.8294 48.6692 33.55 47.1764 33.55 46.2289C33.55 45.9819 33.4022 45.3914 33.2216 44.9169C32.5237 43.081 28.1634 42.1764 25.1643 43.2456Z" fill="url(#paint0_linear_10_2)"/>
<defs>
<linearGradient id="paint0_linear_10_2" x1="60" y1="35.1429" x2="5.14286" y2="9.42857" gradientUnits="userSpaceOnUse">
<stop stop-color="#FF7F28"/>
<stop offset="1" stop-color="#FC5A12"/>
</linearGradient>
</defs>
</svg>
