<svg width="60" height="51" viewBox="0 0 60 51" fill="none" xmlns="http://www.w3.org/2000/svg">
<path fill-rule="evenodd" clip-rule="evenodd" d="M27.6132 0.0540086C26.9847 0.113852 26.0325 0.474564 25.4972 0.855445L24.5239 1.54844L25.4827 2.3307C26.5665 3.21512 27.3884 3.17181 29.803 2.10389C32.3895 0.959922 31.0706 -0.274964 27.6132 0.0540086ZM45.5021 3.08816C44.7476 3.63501 44.13 4.23741 44.13 4.42719C44.13 5.40353 45.2911 6.83183 46.5488 7.40315C49.9516 8.94784 52.8079 7.36282 51.3912 4.71616C51.1224 4.21394 47.5718 2.0943 46.9995 2.0943C46.9304 2.0943 46.2569 2.54164 45.5021 3.08816ZM31.5669 3.43333C30.0255 3.75206 28.7357 4.52638 28.1201 5.50272C27.8546 5.9236 27.8916 6.29853 28.2642 6.974C28.6633 7.69642 29.3884 8.09052 31.8393 8.91643L34.9135 9.95294L37.1306 9.38261C39.7694 8.70383 40.6921 8.2479 41.1467 7.39853C41.5885 6.57295 41.1166 5.33674 40.1099 4.68178C38.269 3.48425 34.197 2.88912 31.5669 3.43333ZM19.5668 4.91553C17.1294 5.8102 14.3737 8.09681 14.3737 9.22457C14.3737 10.1391 15.8879 10.8179 17.5073 10.6287C18.1478 10.554 18.6718 10.5282 18.6718 10.5719C18.6718 10.6155 17.3701 11.7241 15.7792 13.035L12.8865 15.4192L12.7017 14.2835C12.4673 12.84 12.1667 12.3635 11.2817 12.0296C9.41131 11.3247 6.1153 14.909 5.58498 18.2239C5.41272 19.3027 5.50166 19.6723 6.07166 20.2423C7.01031 21.181 7.72214 21.1218 9.44735 19.961L10.9021 18.982L11.0952 21.8621C11.3174 25.1706 12.0305 26.8783 13.8629 28.4868C15.6823 30.0844 17.4075 30.7731 21.0196 31.3434C24.676 31.921 30.5634 29.8427 33.7149 26.8625C39.3329 21.549 38.9484 13.9895 32.9006 10.8622C31.4052 10.0888 27.9951 9.38096 25.6149 9.34955C22.2591 9.3059 22.0372 9.10621 23.6226 7.55789C25.7072 5.52256 25.2979 4.39281 22.4905 4.43182C21.5724 4.44472 20.2565 4.66227 19.5668 4.91553ZM10.7368 7.32083C9.10912 8.11764 8.92562 8.31171 8.98778 9.17299C9.02613 9.70232 9.17921 10.2571 9.32832 10.4062C9.73731 10.8152 13.7118 7.43655 13.4929 6.86589C13.2452 6.22117 12.8508 6.2863 10.7368 7.32083ZM41.1206 10.4492C39.0225 11.8507 38.3675 14.2276 39.329 16.9523C41.0965 21.9626 47.3169 23.9186 50.3818 20.4278C51.2411 19.4492 51.4037 18.9926 51.4037 17.5613C51.4037 15.4132 50.4694 13.4324 48.7029 11.8365C46.1967 9.57239 43.2422 9.03182 41.1206 10.4492ZM1.40521 19.2042C0.281747 20.4853 -0.255189 21.9864 0.117426 22.8044C0.849762 24.4112 2.7912 23.3132 3.52022 20.8795C3.80853 19.9167 3.79762 19.5249 3.47162 19.1321C2.91386 18.4599 2.03076 18.4907 1.40521 19.2042ZM4.95778 24.5696C3.66868 25.9152 3.4217 28.5027 4.39936 30.419C5.3909 32.3624 7.19843 33.8344 8.594 33.8344C10.2336 33.8344 11.7128 32.4206 12.0629 30.5188C12.3036 29.2125 12.2167 28.8168 11.3157 27.1223C9.99784 24.6433 8.74708 23.585 7.13628 23.585C6.19763 23.585 5.67491 23.821 4.95778 24.5696ZM38.6746 25.1045C35.7592 26.1652 32.5763 29.12 31.6756 31.6023C30.781 34.0688 31.3596 36.7703 33.0021 37.7959C33.3856 38.0356 34.6701 38.2985 35.8564 38.3801C38.7986 38.5828 41.3607 37.6084 43.6975 35.3982C47.7916 31.5263 48.2473 26.836 44.6867 25.2192C43.0462 24.4747 40.5384 24.4267 38.6746 25.1045ZM54.8753 26.8132C52.7434 27.1842 50.5127 28.7702 49.5572 30.5942C48.9379 31.7765 48.9634 33.6654 49.6121 34.6553C49.8997 35.0944 50.7838 35.7011 51.5766 36.0039C52.7996 36.4711 53.2678 36.4949 54.6617 36.1603C57.5173 35.4753 60 32.7198 60 30.2355C60 28.1873 57.3084 26.39 54.8753 26.8132ZM17.7517 32.2093C13.8619 32.8779 11.9846 34.7935 12.6957 37.3687C13.2033 39.2064 14.2401 40.0442 17.1642 40.9792C19.3334 41.6725 20.2241 41.7958 21.9536 41.6417C26.299 41.2549 28.8081 38.9511 27.9614 36.1253C27.1094 33.2816 22.2826 31.4304 17.7517 32.2093ZM2.79417 35.0742C1.50176 36.7141 2.45958 39.6798 4.62385 40.7401C5.73442 41.2837 6.33319 41.0046 7.18852 39.5443C7.75157 38.5838 7.74926 38.4902 7.12669 37.0375C5.87825 34.1253 4.15701 33.3454 2.79417 35.0742ZM25.1643 43.2456C23.2678 43.9217 21.9781 45.2962 21.9781 46.6411C21.9781 48.164 23.1557 49.1727 25.6754 49.8072C27.6665 50.3088 27.7501 50.3022 29.8026 49.4805C31.8294 48.6692 33.55 47.1764 33.55 46.2289C33.55 45.9819 33.4022 45.3914 33.2216 44.9169C32.5237 43.081 28.1634 42.1764 25.1643 43.2456Z" fill="url(#paint0_linear_3_25)"/>
<defs>
<linearGradient id="paint0_linear_3_25" x1="60" y1="35.1429" x2="5.14286" y2="9.42857" gradientUnits="userSpaceOnUse">
<stop stop-color="#FF7F28"/>
<stop offset="1" stop-color="#FC5A12"/>
</linearGradient>
</defs>
</svg>
